<?xml version="1.0" encoding="UTF-8"?>
<svg version="1.1" xmlns="http://www.w3.org/2000/svg" width="32" height="32">
<path d="M0 0 C1.65 0 3.3 0 5 0 C5.33 1.98 5.66 3.96 6 6 C6.66 5.67 7.32 5.34 8 5 C8.65555119 2.47266765 8.65555119 2.47266765 9 0 C10.65 0 12.3 0 14 0 C14.12375 0.721875 14.2475 1.44375 14.375 2.1875 C15.000475 5.00213749 15.7099631 7.4199262 17 10 C17.99 10.33 18.98 10.66 20 11 C19.95875 11.78375 19.9175 12.5675 19.875 13.375 C19.71271266 16.16116119 19.71271266 16.16116119 22 18 C22 20.31 22 22.62 22 25 C12.1 25 2.2 25 -8 25 C-8 18 -8 18 -6 15 C-5.61500109 13.34450469 -5.27206865 11.6777567 -5 10 C-4.34 10 -3.68 10 -3 10 C-1.5783681 6.6828589 -0.60990891 3.55780196 0 0 Z " fill="#28B6B1" transform="translate(9,7)"/>
<path d="M0 0 C1.65 0 3.3 0 5 0 C5.12375 0.721875 5.2475 1.44375 5.375 2.1875 C6.000475 5.00213749 6.7099631 7.4199262 8 10 C8.99 10.33 9.98 10.66 11 11 C11 13.3125 11 13.3125 10 16 C7.44481903 17.38293093 4.79133871 18.21791649 2 19 C1.34 18.34 0.68 17.68 0 17 C-1.64991582 16.29289322 -3.31562256 15.62056011 -5 15 C-4.67 13.68 -4.34 12.36 -4 11 C-3.34 11 -2.68 11 -2 11 C-1.93941406 10.37351562 -1.87882812 9.74703125 -1.81640625 9.1015625 C-1.73261719 8.28429688 -1.64882813 7.46703125 -1.5625 6.625 C-1.48128906 5.81289062 -1.40007813 5.00078125 -1.31640625 4.1640625 C-1 2 -1 2 0 0 Z " fill="#E4366E" transform="translate(18,7)"/>
<path d="M0 0 C2.475 0.99 2.475 0.99 5 2 C4.67 3.65 4.34 5.3 4 7 C4.99 7.33 5.98 7.66 7 8 C7 10.31 7 12.62 7 15 C3.7 15 0.4 15 -3 15 C-3.25 8.375 -3.25 8.375 -1 5 C-0.61500109 3.34450469 -0.27206865 1.6777567 0 0 Z " fill="#F5B757" transform="translate(4,17)"/>
<path d="M0 0 C2 2 2 2 2.125 5.625 C2.08375 6.73875 2.0425 7.8525 2 9 C-1.3 9 -4.6 9 -8 9 C-8.1875 5.625 -8.1875 5.625 -8 2 C-4.77626323 -0.14915785 -3.73296326 -0.38286803 0 0 Z " fill="#6951FE" transform="translate(29,23)"/>
<path d="M0 0 C2.4375 0.8125 2.4375 0.8125 4.4375 2.8125 C4.5625 5.9375 4.5625 5.9375 4.4375 8.8125 C1.1375 8.8125 -2.1625 8.8125 -5.5625 8.8125 C-5.92325949 3.40110759 -5.92325949 3.40110759 -4.375 0.875 C-2.5625 -0.1875 -2.5625 -0.1875 0 0 Z " fill="#626A95" transform="translate(16.5625,23.1875)"/>
<path d="M0 0 C1.32 0 2.64 0 4 0 C4 4.29 4 8.58 4 13 C1.36 11.68 -1.28 10.36 -4 9 C-3.67 7.68 -3.34 6.36 -3 5 C-2.34 5 -1.68 5 -1 5 C-0.67 3.35 -0.34 1.7 0 0 Z " fill="#F86267" transform="translate(17,13)"/>
<path d="M0 0 C0.99 0 1.98 0 3 0 C4.4783226 2.95664519 4.06032783 5.74229737 4 9 C2.02 9 0.04 9 -2 9 C-2.125 5.625 -2.125 5.625 -2 2 C-1.34 1.34 -0.68 0.68 0 0 Z " fill="#FED745" transform="translate(3,23)"/>
<path d="M0 0 C4.62 0 9.24 0 14 0 C13.67 1.32 13.34 2.64 13 4 C9.04 4 5.08 4 1 4 C0.67 2.68 0.34 1.36 0 0 Z " fill="#FFC14F" transform="translate(9,0)"/>
<path d="M0 0 C0.99 0 1.98 0 3 0 C3 3.96 3 7.92 3 12 C2.01 11.67 1.02 11.34 0 11 C0 9.35 0 7.7 0 6 C-0.66 5.67 -1.32 5.34 -2 5 C-1.125 1.125 -1.125 1.125 0 0 Z " fill="#35DEA2" transform="translate(8,13)"/>
<path d="M0 0 C3.875 0.875 3.875 0.875 5 2 C5.04080783 3.99958364 5.04254356 6.00045254 5 8 C3.35 8 1.7 8 0 8 C0 5.36 0 2.72 0 0 Z " fill="#444C85" transform="translate(16,24)"/>
<path d="M0 0 C1.65 0 3.3 0 5 0 C5.38218767 1.65614657 5.71395102 3.32457024 6 5 C5 6 5 6 2.4375 6.0625 C1.2309375 6.0315625 1.2309375 6.0315625 0 6 C-1.125 2.25 -1.125 2.25 0 0 Z " fill="#9A665D" transform="translate(18,7)"/>
<path d="M0 0 C1.2065625 0.0309375 1.2065625 0.0309375 2.4375 0.0625 C2.81968767 1.71864657 3.15145102 3.38707024 3.4375 5.0625 C2.4375 6.0625 2.4375 6.0625 -0.125 6.125 C-1.3315625 6.0940625 -1.3315625 6.0940625 -2.5625 6.0625 C-2.94468767 4.40635343 -3.27645102 2.73792976 -3.5625 1.0625 C-2.5625 0.0625 -2.5625 0.0625 0 0 Z " fill="#DFBA76" transform="translate(11.5625,6.9375)"/>
<path d="M0 0 C0.66 0.33 1.32 0.66 2 1 C1.67 3.64 1.34 6.28 1 9 C-0.32 9 -1.64 9 -3 9 C-3.1875 5.625 -3.1875 5.625 -3 2 C-2.01 1.34 -1.02 0.68 0 0 Z " fill="#6B7DF7" transform="translate(24,23)"/>
<path d="M0 0 C0 2.97 0 5.94 0 9 C-1.32 8.67 -2.64 8.34 -4 8 C-4 5.69 -4 3.38 -4 1 C-2 0 -2 0 0 0 Z " fill="#FFB655" transform="translate(32,9)"/>
<path d="M0 0 C1.32 0.33 2.64 0.66 4 1 C4 3.31 4 5.62 4 8 C2.68 8.33 1.36 8.66 0 9 C0 6.03 0 3.06 0 0 Z " fill="#FFDA44" transform="translate(0,9)"/>
<path d="M0 0 C0.99 0.33 1.98 0.66 3 1 C2.67 2.65 2.34 4.3 2 6 C0.35 5.67 -1.3 5.34 -3 5 C-2.625 3.0625 -2.625 3.0625 -2 1 C-1.34 0.67 -0.68 0.34 0 0 Z " fill="#DFB46F" transform="translate(26,17)"/>
<path d="M0 0 C2.475 0.99 2.475 0.99 5 2 C4.67 3.32 4.34 4.64 4 6 C2.35 5.67 0.7 5.34 -1 5 C-0.67 3.35 -0.34 1.7 0 0 Z " fill="#9A6C61" transform="translate(4,17)"/>
<path d="M0 0 C1.65 0.33 3.3 0.66 5 1 C4.67 2.32 4.34 3.64 4 5 C2.35 4.67 0.7 4.34 -1 4 C-0.67 2.68 -0.34 1.36 0 0 Z " fill="#EDCABD" transform="translate(14,18)"/>
<path d="M0 0 C0.99 0.33 1.98 0.66 3 1 C2.34 2.32 1.68 3.64 1 5 C0.34 5 -0.32 5 -1 5 C-1.33 4.01 -1.66 3.02 -2 2 C-1.34 1.34 -0.68 0.68 0 0 Z " fill="#FFB655" transform="translate(27,5)"/>
<path d="M0 0 C1.32 0.66 2.64 1.32 4 2 C3.67 2.99 3.34 3.98 3 5 C1.68 4.34 0.36 3.68 -1 3 C-0.67 2.01 -0.34 1.02 0 0 Z " fill="#FFDA44" transform="translate(3,5)"/>
<path d="M0 0 C0.99 0.33 1.98 0.66 3 1 C2.34 2.32 1.68 3.64 1 5 C0.01 4.67 -0.98 4.34 -2 4 C-1.34 2.68 -0.68 1.36 0 0 Z " fill="#FFB655" transform="translate(24,2)"/>
<path d="M0 0 C1.32 0.66 2.64 1.32 4 2 C4 2.66 4 3.32 4 4 C3.01 4.33 2.02 4.66 1 5 C0.34 3.68 -0.32 2.36 -1 1 C-0.67 0.67 -0.34 0.34 0 0 Z " fill="#FFDA44" transform="translate(6,2)"/>
</svg>
