<?xml version="1.0" encoding="UTF-8"?>
<svg version="1.1" xmlns="http://www.w3.org/2000/svg" width="32" height="32">
<path d="M0 0 C4.65942967 5.99069529 2.82180351 15.0083486 2 22 C3.65 22.33 5.3 22.66 7 23 C7 25.31 7 27.62 7 30 C-1.58 30 -10.16 30 -19 30 C-19 27.69 -19 25.38 -19 23 C-17.35 22.67 -15.7 22.34 -14 22 C-14 21.34 -14 20.68 -14 20 C-13.34 19.34 -12.68 18.68 -12 18 C-12.66 18 -13.32 18 -14 18 C-14.34179688 14.97265625 -14.34179688 14.97265625 -14.68359375 11.9453125 C-14.91292961 9.92595684 -14.91292961 9.92595684 -16 8 C-14.34721441 3.91153039 -12.82114055 1.2688022 -9 -1 C-5.17211056 -2.27596315 -3.63343017 -1.62344752 0 0 Z M0 16 C1 19 1 19 1 19 Z M-1 20 C0 22 0 22 0 22 Z " fill="#7A594B" transform="translate(22,2)"/>
<path d="M0 0 C0.9590625 0.680625 0.9590625 0.680625 1.9375 1.375 C2.700625 1.849375 3.46375 2.32375 4.25 2.8125 C7.03578271 7.04276264 5.70315845 11.54802282 4.9375 16.375 C6.5875 16.705 8.2375 17.035 9.9375 17.375 C9.9375 19.685 9.9375 21.995 9.9375 24.375 C5.3175 24.375 0.6975 24.375 -4.0625 24.375 C-4.0625 17.375 -4.0625 17.375 -2.0625 14.375 C-2.3925 14.045 -2.7225 13.715 -3.0625 13.375 C-3.10342937 11.04202567 -3.10491723 8.70794775 -3.0625 6.375 C-2.0725 6.045 -1.0825 5.715 -0.0625 5.375 C-0.0625 4.715 -0.0625 4.055 -0.0625 3.375 C-0.660625 3.601875 -1.25875 3.82875 -1.875 4.0625 C-2.596875 4.165625 -3.31875 4.26875 -4.0625 4.375 C-5.8125 2.9375 -5.8125 2.9375 -7.0625 1.375 C-2.68514151 -0.81367925 -2.68514151 -0.81367925 0 0 Z M2.9375 10.375 C3.9375 13.375 3.9375 13.375 3.9375 13.375 Z M1.9375 14.375 C2.9375 16.375 2.9375 16.375 2.9375 16.375 Z " fill="#DEB090" transform="translate(19.0625,7.625)"/>
<path d="M0 0 C0.66 0 1.32 0 2 0 C2.66 1.98 3.32 3.96 4 6 C3.34 6.66 2.68 7.32 2 8 C1.59952556 10.32275177 1.2602896 12.65739357 1 15 C-2.96 15 -6.92 15 -11 15 C-11 12.69 -11 10.38 -11 8 C-9.35 7.67 -7.7 7.34 -6 7 C-6 6.34 -6 5.68 -6 5 C-5.38125 4.731875 -4.7625 4.46375 -4.125 4.1875 C-1.7004767 3.04443152 -1.7004767 3.04443152 0 0 Z " fill="#27344A" transform="translate(14,17)"/>
<path d="M0 0 C1.9375 0.3125 1.9375 0.3125 4 1 C4.33 1.99 4.66 2.98 5 4 C6.65 4.33 8.3 4.66 10 5 C10 7.31 10 9.62 10 12 C6.04 12 2.08 12 -2 12 C-2 6.98367082 -1.70572284 4.47752245 0 0 Z M2 2 C3 4 3 4 3 4 Z " fill="#5C6A81" transform="translate(19,20)"/>
<path d="M0 0 C1.65 0 3.3 0 5 0 C5.33 0.99 5.66 1.98 6 3 C4.68 3 3.36 3 2 3 C2 3.99 2 4.98 2 6 C-0.3125 8.25 -0.3125 8.25 -3 10 C-3.99 9.67 -4.98 9.34 -6 9 C-6.33 6.69 -6.66 4.38 -7 2 C-5.35 1.67 -3.7 1.34 -2 1 C-2 1.66 -2 2.32 -2 3 C-1.34 3 -0.68 3 0 3 C0 2.01 0 1.02 0 0 Z " fill="#AC775B" transform="translate(14,11)"/>
<path d="M0 0 C0.66 0.33 1.32 0.66 2 1 C2 2.32 2 3.64 2 5 C1.34 5 0.68 5 0 5 C0 5.99 0 6.98 0 8 C4.455 7.505 4.455 7.505 9 7 C9 7.99 9 8.98 9 10 C5.37 10 1.74 10 -2 10 C-2.17942163 6.05272412 -2.09350689 3.4019487 0 0 Z " fill="#3D4A5F" transform="translate(19,22)"/>
<path d="M0 0 C2.23646584 2.98195445 2.50401393 6.36276884 3 10 C2.34 9.67 1.68 9.34 1 9 C1 8.01 1 7.02 1 6 C0.01 5.67 -0.98 5.34 -2 5 C-2 4.34 -2 3.68 -2 3 C-3.32 3 -4.64 3 -6 3 C-6 2.01 -6 1.02 -6 0 C-6.99 -0.33 -7.98 -0.66 -9 -1 C-5.17211056 -2.27596315 -3.63343017 -1.62344752 0 0 Z " fill="#BE947E" transform="translate(22,2)"/>
<path d="M0 0 C1.32 0 2.64 0 4 0 C4 0.66 4 1.32 4 2 C4.66 2.33 5.32 2.66 6 3 C5.67 3.66 5.34 4.32 5 5 C4.34 5 3.68 5 3 5 C2.34 8.3 1.68 11.6 1 15 C0.34 15 -0.32 15 -1 15 C-1.25 8.375 -1.25 8.375 1 5 C0.6878236 2.35367713 0.6878236 2.35367713 0 0 Z " fill="#BA937C" transform="translate(16,17)"/>
<path d="M0 0 C0.66 0 1.32 0 2 0 C2.66 1.98 3.32 3.96 4 6 C3.34 6.66 2.68 7.32 2 8 C1.59952556 10.32275177 1.2602896 12.65739357 1 15 C0.67 15 0.34 15 0 15 C-0.38991022 13.06544546 -0.76145349 11.12718172 -1.125 9.1875 C-1.33382813 8.10855469 -1.54265625 7.02960937 -1.7578125 5.91796875 C-2 3 -2 3 0 0 Z " fill="#775040" transform="translate(14,17)"/>
<path d="M0 0 C1.4391134 0.28359887 2.87625518 0.57721399 4.3125 0.875 C5.11300781 1.03742187 5.91351563 1.19984375 6.73828125 1.3671875 C9 2 9 2 12 4 C12.6875 6.625 12.6875 6.625 13 9 C12.360625 8.154375 11.72125 7.30875 11.0625 6.4375 C8.34668951 3.78779668 8.34668951 3.78779668 5.6640625 3.890625 C3.40955438 4.16088149 1.2170777 4.5121463 -1 5 C-0.67 3.35 -0.34 1.7 0 0 Z " fill="#6D3D28" transform="translate(11,4)"/>
<path d="M0 0 C0.99 0.33 1.98 0.66 3 1 C2.67 3.64 2.34 6.28 2 9 C0.68 8.34 -0.64 7.68 -2 7 C-2 6.34 -2 5.68 -2 5 C-3.32 4.67 -4.64 4.34 -6 4 C-4.02 4 -2.04 4 0 4 C0 2.68 0 1.36 0 0 Z " fill="#DBA67C" transform="translate(22,12)"/>
<path d="M0 0 C0.66 0.33 1.32 0.66 2 1 C2 2.32 2 3.64 2 5 C-0.31 5 -2.62 5 -5 5 C-5.33 5.66 -5.66 6.32 -6 7 C-6.33 6.01 -6.66 5.02 -7 4 C-5.35 3.67 -3.7 3.34 -2 3 C-2 2.34 -2 1.68 -2 1 C-1.34 0.67 -0.68 0.34 0 0 Z " fill="#6B564F" transform="translate(10,21)"/>
<path d="M0 0 C0.33 0.66 0.66 1.32 1 2 C3.01669827 3.13350534 3.01669827 3.13350534 5 4 C4.01 4.495 4.01 4.495 3 5 C3.66 5.66 4.32 6.32 5 7 C3.02 7 1.04 7 -1 7 C-0.67 4.69 -0.34 2.38 0 0 Z " fill="#466186" transform="translate(20,23)"/>
<path d="M0 0 C2.125 0.9375 2.125 0.9375 4 2 C4 2.66 4 3.32 4 4 C2.02 4 0.04 4 -2 4 C-2 3.01 -2 2.02 -2 1 C-1.34 0.67 -0.68 0.34 0 0 Z " fill="#1C2A3E" transform="translate(6,28)"/>
<path d="M0 0 C0.33 0 0.66 0 1 0 C1 1.65 1 3.3 1 5 C0.67 5 0.34 5 0 5 C0 3.35 0 1.7 0 0 Z " fill="#845B4A" transform="translate(5,11)"/>
<path d="M0 0 C1 4 1 4 1 4 Z " fill="#997260" transform="translate(26,8)"/>
<path d="" fill="#536179" transform="translate(0,0)"/>
<path d="" fill="#3D404E" transform="translate(0,0)"/>
<path d="" fill="#E6A982" transform="translate(0,0)"/>
<path d="" fill="#675551" transform="translate(0,0)"/>
<path d="" fill="#303A69" transform="translate(0,0)"/>
<path d="M0 0 C2 1 2 1 2 1 Z " fill="#486893" transform="translate(24,23)"/>
<path d="M0 0 C2 1 2 1 2 1 Z " fill="#634F4C" transform="translate(6,23)"/>
<path d="" fill="#C19379" transform="translate(0,0)"/>
<path d="" fill="#68534E" transform="translate(0,0)"/>
<path d="M0 0 C2 1 2 1 2 1 Z " fill="#7E6056" transform="translate(11,0)"/>
<path d="" fill="#6F6F7B" transform="translate(0,0)"/>
<path d="" fill="#B65819" transform="translate(0,0)"/>
<path d="" fill="#F2B58A" transform="translate(0,0)"/>
<path d="" fill="#875137" transform="translate(0,0)"/>
<path d="" fill="#4D3126" transform="translate(0,0)"/>
<path d="" fill="#9A8C8C" transform="translate(0,0)"/>
<path d="" fill="#CA9D83" transform="translate(0,0)"/>
<path d="" fill="#CB9B7E" transform="translate(0,0)"/>
<path d="" fill="#6E554C" transform="translate(0,0)"/>
<path d="" fill="#C79B82" transform="translate(0,0)"/>
<path d="" fill="#77625D" transform="translate(0,0)"/>
<path d="" fill="#6E5249" transform="translate(0,0)"/>
<path d="" fill="#664A40" transform="translate(0,0)"/>
</svg>
